<?xml version="1.0" encoding="UTF-8" standalone="no"?><!DOCTYPE svg PUBLIC "-//W3C//DTD SVG 1.1//EN" "http://www.w3.org/Graphics/SVG/1.1/DTD/svg11.dtd"><svg width="100%" height="100%" viewBox="0 0 2030 2030" version="1.1" xmlns="http://www.w3.org/2000/svg" xmlns:xlink="http://www.w3.org/1999/xlink" xml:space="preserve" xmlns:serif="http://www.serif.com/" style="fill-rule:evenodd;clip-rule:evenodd;stroke-linejoin:round;stroke-miterlimit:2;"><rect id="Artboard1" x="0" y="0" width="2027.11" height="2027.11" style="fill:none;"/><g id="Artboard11" serif:id="Artboard1"><g><rect x="612.513" y="1013.56" width="619.792" height="72.917" style="fill:#fff;fill-rule:nonzero;"/><rect x="1305.22" y="1013.56" width="109.375" height="72.917" style="fill:#fff;fill-rule:nonzero;"/><rect x="612.513" y="1159.39" width="619.792" height="72.917" style="fill:#fff;fill-rule:nonzero;"/><rect x="1305.22" y="1159.39" width="109.375" height="72.917" style="fill:#fff;fill-rule:nonzero;"/><rect x="612.513" y="1423.79" width="510.417" height="72.917" style="fill:#fff;fill-rule:nonzero;"/><rect x="1268.76" y="1423.79" width="145.833" height="72.917" style="fill:#fff;fill-rule:nonzero;"/><path d="M1633.35,210.247l-1239.58,0c-100.521,0 -182.291,81.771 -182.291,182.292c-0,100.521 81.77,182.292 182.291,182.292l0,1205.57c0,12.646 6.559,24.398 17.285,31.022c10.791,6.641 24.203,7.227 35.482,1.611l129.525,-64.796l129.542,64.746c10.237,5.144 22.347,5.144 32.633,0l129.492,-64.746l129.541,64.746c10.238,5.144 22.347,5.144 32.634,0l129.491,-64.746l129.542,64.746c10.237,5.144 22.347,5.144 32.633,0l129.492,-64.746l129.542,64.746c5.143,2.604 10.709,3.874 16.292,3.874c6.673,-0 13.314,-1.823 19.173,-5.436c10.726,-6.674 17.285,-18.376 17.285,-31.022l0,-1205.57c100.521,0 182.292,-81.771 182.292,-182.291c0,-100.521 -81.771,-182.292 -182.292,-182.292l-0,0.001Zm-1348.96,182.292c0,-60.304 49.071,-109.375 109.375,-109.375l0,218.75c-60.304,-0 -109.375,-49.071 -109.375,-109.375Zm1276.04,1328.87l-93.083,-46.517c-10.238,-5.143 -22.348,-5.143 -32.634,0l-129.491,64.746l-129.542,-64.746c-5.095,-2.604 -10.71,-3.874 -16.293,-3.874c-5.583,0 -11.198,1.27 -16.292,3.858l-129.542,64.762l-129.541,-64.745c-10.238,-5.144 -22.348,-5.144 -32.634,-0l-129.491,64.745l-129.542,-64.745c-10.238,-5.144 -22.347,-5.144 -32.633,-0l-93.034,46.516l0,-1438.24l1093.75,0l0.002,1438.24Zm72.917,-1219.49l-0,-218.75c60.304,-0 109.375,49.071 109.375,109.375c-0,60.304 -49.071,109.375 -109.375,109.375Z" style="fill:#fff;fill-rule:nonzero;"/><path d="M1013.56,793.581c100.521,-0 182.292,-81.771 182.292,-182.292c-0,-100.521 -81.771,-182.292 -182.292,-182.292c-100.521,0 -182.292,81.771 -182.292,182.292c0,100.521 81.771,182.292 182.292,182.292Zm-0,-291.667c60.304,-0 109.375,49.071 109.375,109.375c-0,60.304 -49.071,109.375 -109.375,109.375c-60.304,-0 -109.375,-49.071 -109.375,-109.375c-0,-60.304 49.071,-109.375 109.375,-109.375Z" style="fill:#fff;fill-rule:nonzero;"/></g></g></svg>